<?xml version="1.0" encoding="utf-8"?>
<svg aria-hidden="true" focusable="false" data-prefix="fas" data-icon="th-large" class="svg-inline--fa fa-th-large fa-w-16" role="img" viewBox="0 0 512 512" xmlns="http://www.w3.org/2000/svg">
  <path fill="currentColor" d="M 288.187 75.75 L 442.687 75.75 C 453.354 75.75 462 84.396 462 95.062 L 462 223.812 C 462 234.479 453.354 243.125 442.687 243.125 L 288.187 243.125 C 277.521 243.125 268.875 234.479 268.875 223.812 L 268.875 95.062 C 268.875 84.396 277.521 75.75 288.187 75.75 Z M 223.812 75.75 L 69.312 75.75 C 58.646 75.75 50 84.396 50 95.062 L 50 223.812 C 50 234.479 58.646 243.125 69.312 243.125 L 223.812 243.125 C 234.479 243.125 243.125 234.479 243.125 223.812 L 243.125 95.062 C 243.125 84.396 234.479 75.75 223.812 75.75 Z M 50 288.187 L 50 416.937 C 50 427.604 58.646 436.25 69.312 436.25 L 223.812 436.25 C 234.479 436.25 243.125 427.604 243.125 416.937 L 243.125 288.187 C 243.125 277.521 234.479 268.875 223.812 268.875 L 69.312 268.875 C 58.646 268.875 50 277.521 50 288.187 Z M 288.187 436.25 L 442.687 436.25 C 453.354 436.25 462 427.604 462 416.937 L 462 288.187 C 462 277.521 453.354 268.875 442.687 268.875 L 288.187 268.875 C 277.521 268.875 268.875 277.521 268.875 288.187 L 268.875 416.937 C 268.875 427.604 277.521 436.25 288.187 436.25 Z" style="stroke: rgb(70, 203, 174); fill: none; stroke-width: 16px;"/>
</svg>