<?xml version="1.0" encoding="utf-8"?>
<svg aria-hidden="true" focusable="false" data-prefix="fas" data-icon="gavel" class="svg-inline--fa fa-gavel fa-w-16" role="img" viewBox="0 0 512 512" xmlns="http://www.w3.org/2000/svg">
  <path d="M 450.509 211.751 L 432.831 194.074 C 425.509 186.751 413.637 186.751 406.315 194.074 L 401.895 198.494 L 313.506 110.105 L 317.926 105.686 C 325.249 98.363 325.249 86.491 317.926 79.169 L 300.249 61.491 C 292.926 54.169 281.054 54.169 273.732 61.491 L 176.505 158.719 C 169.182 166.041 169.182 177.913 176.505 185.235 L 194.182 202.912 C 201.505 210.235 213.377 210.235 220.699 202.912 L 225.118 198.493 L 256.054 229.429 L 192.742 292.741 L 188.322 288.322 C 178.559 278.558 162.73 278.558 152.966 288.322 L 63.323 377.967 C 53.559 387.73 53.559 403.559 63.323 413.323 L 98.678 448.678 C 108.441 458.441 124.27 458.441 134.034 448.678 L 223.678 359.034 C 233.442 349.27 233.442 333.441 223.678 323.678 L 219.259 319.259 L 282.571 255.946 L 313.507 286.882 L 309.088 291.301 C 301.765 298.624 301.765 310.496 309.088 317.818 L 326.765 335.495 C 334.088 342.818 345.96 342.818 353.281 335.495 L 450.509 238.268 C 457.831 230.946 457.831 219.074 450.509 211.751 Z" style="stroke: rgb(70, 203, 174); fill: none; stroke-width: 16px;"/>
</svg>
