<?xml version="1.0" encoding="utf-8"?>
<svg aria-hidden="true" focusable="false" data-prefix="fas" data-icon="plug" class="svg-inline--fa fa-plug fa-w-12" role="img" viewBox="0 0 384 512" xmlns="http://www.w3.org/2000/svg">
  <path fill="currentColor" d="M 286.667 90.351 C 286.667 72.132 266.944 60.745 251.167 69.855 C 243.844 74.082 239.333 81.895 239.333 90.351 L 239.333 161.351 L 286.667 161.351 Z M 322.167 185.017 L 61.833 185.017 C 55.298 185.017 50 190.315 50 196.851 L 50 220.517 C 50 227.053 55.298 232.351 61.833 232.351 L 73.667 232.351 L 73.667 256.017 C 73.675 312.25 113.241 360.718 168.333 371.984 L 168.333 445.351 L 215.667 445.351 L 215.667 371.984 C 270.759 360.718 310.325 312.25 310.333 256.017 L 310.333 232.351 L 322.167 232.351 C 328.702 232.351 334 227.053 334 220.517 L 334 196.851 C 334 190.315 328.702 185.017 322.167 185.017 Z M 144.667 90.351 C 144.667 72.132 124.944 60.745 109.167 69.855 C 101.844 74.082 97.333 81.895 97.333 90.351 L 97.333 161.351 L 144.667 161.351 Z" style="stroke: rgb(70, 203, 174); fill: none; stroke-width: 16px;"/>
</svg>
