<?xml version="1.0" encoding="utf-8"?>
<!-- Generator: Adobe Illustrator 24.3.0, SVG Export Plug-In . SVG Version: 6.00 Build 0)  -->
<svg version="1.1" id="Layer_1" xmlns="http://www.w3.org/2000/svg" xmlns:xlink="http://www.w3.org/1999/xlink" x="0px" y="0px"
	 viewBox="0 0 1000 1000" style="enable-background:new 0 0 1000 1000;" xml:space="preserve">
<style type="text/css">
	.st0{fill:#334870;}
	.st1{fill:#CDDBE6;}
	.st2{fill:#ABC3D6;}
	.st3{fill:#92A8B7;}
	.st4{fill:#1D1D1B;}
	.st5{fill:#A8E7D9;}
	.st6{fill:#7CDAC6;}
	.st7{fill:#25C2A0;}
</style>
<g>
	<g>
		<path class="st4" d="M384.4,577.8c-0.2,0-0.3,0-0.5,0c-7.5-0.3-19.2-1.2-32.4-1.2c-12.6,0-20.4,6.1-20.4,26.5v19.5
			c0,21.5,9.8,26.5,17.5,26.5c4.4,0,8.3-0.2,12-0.5v-35.8c0-1.7,1.2-3.1,3-3.1h19.9c1.7,0,3.1,1.4,3.1,3.1V665
			c0,2.2-0.8,3.1-3.1,3.6c-8.4,1.7-19.3,3.3-34.9,3.3c-17.8,0-44.4-10.1-44.4-49.5V603c0-39.7,24.8-49.7,47.4-49.7
			c15.6,0,26.8,2.3,32.6,3.6c1.6,0.3,2.6,0.9,2.6,2.3v16.5C386.7,577.5,385.8,577.8,384.4,577.8z"/>
		<path class="st4" d="M442.8,671.9c-25.2,0-39.1-15.7-39.1-40.5v-10.9c0-24.8,13.9-40.5,39.1-40.5c25.2,0,39,15.7,39,40.5v10.9
			C481.8,656.2,468.1,671.9,442.8,671.9z M456.7,620.5c0-12.6-4.8-19-13.9-19c-9,0-14,6.4-14,19v10.9c0,12.6,5,19.2,14,19.2
			c9,0,13.9-6.5,13.9-19.2V620.5z"/>
		<path class="st4" d="M544.1,600.1h-21.2v67.2c0,1.7-1.6,3.3-3.3,3.3h-18.9c-1.7,0-3.3-1.6-3.3-3.3V575c0-21.5,14.6-26.3,30.4-26.3
			c5.3,0,12.6,0.8,17,1.4c1.7,0.3,2.3,0.9,2.3,1.9V565c0,1.7-0.6,2.5-2.2,2.5h-16.2c-4.8,0-5.9,3-5.9,7.5v6.2h21.2
			c1.7,0,3.1,1.4,3.1,3.1V597C547.2,598.7,545.8,600.1,544.1,600.1z"/>
		<path class="st4" d="M632.7,633.7H583v0.3c0,8.9,3.7,17,16,17c9.8,0,23.7-0.8,29.9-1.4c0.2,0,0.3,0,0.5,0c1.7,0,3,0.8,3,2.5V664
			c0,2.5-0.6,3.6-3.3,4.2c-10,2.5-18.4,3.7-31.9,3.7c-18.9,0-39.1-10-39.1-40V621c0-25.1,14.6-41,39.4-41c25.6,0,38.5,17.5,38.5,41
			v9C636,632.3,634.8,633.7,632.7,633.7z M611.4,617.5c0-11.5-5.3-17.3-14-17.3c-8.6,0-14.3,5.9-14.3,17.3v0.6h28.4V617.5z"/>
		<path class="st4" d="M691.6,601c-4.5,0-10.8,0.3-14,0.9v65.3c0,1.7-1.4,3.3-3.1,3.3h-18.9c-1.7,0-3.3-1.6-3.3-3.3v-77.7
			c0-2.2,1.2-3.7,4.8-5c10-3.3,19.6-4.5,34.4-4.5c1.9,0,4.2,0.8,4.2,3v15.1C695.9,599.8,694.6,601,691.6,601z"/>
	</g>
	<g>
		<path class="st5" d="M531.7,390.2l-0.1,0.1l52.3-20.5C583.9,369.8,534.3,388.9,531.7,390.2z"/>
		<path class="st5" d="M494.9,507.6l46.4,10.4l-17-29.9l1.9,0.8l51.9-25.1l28.6-71.1l49.2-6.1l5.1-1.3l-12.8-18.1l0,0l0,0l-0.1-0.1
			l-19.8-8.2l3.7,6.2l-15.2,0.4l-6-6.3l-0.1,0l-22.3,0.7l-24.9,13.4l20.4-3.3l-45.8,24.4l-32.7,31.4l-18.3,37.5l5.8-32.8
			c-7.2,8.2-17.4,19.8-20.5,24l12.9,45.3L494.9,507.6z"/>
		<polygon class="st6" points="597,480.4 554,487.3 582,466.4 597.3,431.1 598.2,430.2 598.2,430.3 612.5,414.1 612.4,414 
			631.6,392.5 655.9,386.5 606.7,392.6 578.2,463.8 526.3,488.9 580.1,510.3 		"/>
		<polygon class="st7" points="597.3,431.1 597.4,431.2 598.2,430.3 598.2,430.2 		"/>
		<polygon class="st7" points="597.3,431.1 582,466.4 554,487.3 590.2,472.5 		"/>
		<path class="st7" d="M472.4,454.4l-0.1-0.4L472.4,454.4C472.4,454.4,472.4,454.4,472.4,454.4z"/>
		<path class="st7" d="M509.9,518.3c0.1,0,0.2-0.1,0.2-0.1l0.4,0.3l14,4.8h33l-31.9-33.9l-0.2-0.2l0,0l-1.1-1.1l17,29.9l-46.4-10.4
			l-9.6-8l-12.9-45.3c0,0,0,0,0,0l10.5,45.6l7.6,11.6L509.9,518.3z"/>
		<polygon class="st7" points="525.4,489.3 525.6,489.5 525.5,489.3 		"/>
		<polygon class="st5" points="497.6,523.5 496.2,523.1 494,523.5 		"/>
		<polygon class="st5" points="420.8,479.9 463.1,518.3 495.3,522.8 484.6,519.5 425.5,470.8 460.8,484.5 440.6,465.1 431.5,412.3 
			408.2,394.7 407.6,441.2 		"/>
		<polygon class="st6" points="415.3,489.9 464.2,523.6 494,523.5 496.2,523.1 495.3,522.8 463.1,518.3 420.8,479.9 407.6,441.2 
			408.2,394.7 393.1,446.4 		"/>
		<g>
			<path class="st4" d="M637.5,342.1l-40.2-1.7L575,328.1l-16.1,20.5l-46.4,24.6l-35.4,33.7l-14.5,46.8l5.5,23.9l-9.6-14.7
				l-6.8-62.2l-49.6-18.1l-18.9,64.7l25,48.8l38,26.1l-65.4,10.6h86.8l-0.1-0.1l84.7-0.1l-0.5-0.2h78.3l-41.1-18.8l21.8-38.6
				l-2.7-29.6l38.9,15.5l1.8-22.1l-22.8-24.7l10.4-13.3l15.6-3.8v9.7h14.4l14.6-37.3L637.5,342.1z M443.1,407.4l6.4,58.7l12.3,18.8
				l-1.1-0.4l-35.2-13.6l59,48.7l10.8,3.3l0.8,0.3l1.4,0.4l-3.6,0l-29.7,0l-48.9-33.7l-22.2-43.5l15.1-51.7L443.1,407.4z
				 M661.1,394.5v-8.6v-0.6l-5.1,1.3l-24.3,5.9L612.4,414l0.1,0.1l-14.3,16.2l-0.9,1l-0.1-0.2l-7,41.4L554,487.3l43.1-7l-17,30
				l-53.8-21.4l-1.9-0.8l1.1,1.1l0.2,0.2l31.9,33.9h-33l-14-4.8l-0.4-0.3c-0.1,0-0.2,0.1-0.2,0.1l-19.4-6.7l-7.6-11.6l-10.5-45.6
				l-0.1-0.4l13-42.1l32.7-31.1l47-24.9l12.4-15.8l17.3,9.6l40,1.6l25.8,16.4l-12.3-0.5l0,0l0,0l18.6,12.4L661.1,394.5z"/>
			<polygon class="st4" points="607.8,355.9 607.8,355.9 597.8,354.7 610.8,359 611,359.1 610.8,359.1 610.7,359.1 610.9,359.1 
				616.9,365.4 632.1,365 628.4,358.8 			"/>
			<polygon class="st4" points="568,360.7 580.9,353 589.1,353.3 579,347.8 			"/>
			<polygon class="st4" points="500.6,421.7 487.1,463.1 505.4,425.6 538.1,394.2 583.9,369.8 531.6,390.3 			"/>
		</g>
	</g>
</g>
</svg>
