<?xml version="1.0" encoding="utf-8"?>
<!-- Generator: Adobe Illustrator 24.3.0, SVG Export Plug-In . SVG Version: 6.00 Build 0)  -->
<svg version="1.1" id="Layer_1" xmlns="http://www.w3.org/2000/svg" xmlns:xlink="http://www.w3.org/1999/xlink" x="0px" y="0px"
	 viewBox="0 0 1000 1000" style="enable-background:new 0 0 1000 1000;" xml:space="preserve">
<style type="text/css">
	.st0{fill:#334870;}
	.st1{fill:#CDDBE6;}
	.st2{fill:#ABC3D6;}
	.st3{fill:#92A8B7;}
	.st4{fill:#1D1D1B;}
	.st5{fill:#A8E7D9;}
	.st6{fill:#7CDAC6;}
	.st7{fill:#25C2A0;}
</style>
<g>
	<path class="st5" d="M501.5,434.3l-0.2,0.1l85.4-33.4C586.7,401,505.9,432.2,501.5,434.3z"/>
	<path class="st5" d="M441.6,625.8l75.7,17L489.6,594l3.1,1.2l84.6-41l46.6-116l80.3-9.9l8.4-2l-20.9-29.6l-0.1,0l0,0l-0.1-0.2
		L659.3,383l6,10.1l-24.9,0.7l-9.8-10.2l-0.2-0.1l-36.4,1.1l-40.6,21.8l33.3-5.4L512,440.8L458.7,492l-29.9,61.2l9.5-53.5
		c-11.8,13.3-28.4,32.3-33.5,39.2l21.1,73.9L441.6,625.8z"/>
	<polygon class="st6" points="608.1,581.3 537.9,592.7 583.6,558.6 608.5,500.9 610,499.5 610,499.7 633.4,473.2 633.3,473.1 
		664.6,438 704.2,428.3 623.9,438.2 577.3,554.3 492.7,595.3 580.5,630.2 	"/>
	<polygon class="st7" points="608.5,500.9 608.7,501.2 610,499.7 610,499.5 	"/>
	<polygon class="st7" points="608.5,500.9 583.6,558.6 537.9,592.7 597,568.5 	"/>
	<path class="st7" d="M404.8,539l-0.2-0.6L404.8,539C404.8,539,404.8,539,404.8,539z"/>
	<path class="st7" d="M466,643.2c0.1,0,0.3-0.1,0.4-0.1l0.6,0.5l22.9,7.9h53.9l-52.1-55.2l-0.4-0.3l0.1,0l-1.8-1.9l27.7,48.8
		l-75.7-17l-15.7-13L404.8,539c0,0,0,0,0,0l17.1,74.4l12.4,18.9L466,643.2z"/>
	<polygon class="st7" points="491.3,595.9 491.7,596.2 491.4,595.9 	"/>
	<polygon class="st5" points="445.9,651.8 443.6,651.1 440,651.8 	"/>
	<polygon class="st5" points="320.6,580.6 389.6,643.3 442.2,650.6 424.6,645.2 328.3,565.8 385.8,588 352.9,556.4 338.1,470.4 
		300.1,441.6 299.1,517.4 	"/>
	<polygon class="st6" points="311.7,596.9 391.5,651.8 440,651.8 443.6,651.1 442.2,650.6 389.6,643.3 320.6,580.6 299.1,517.4 
		300.1,441.6 275.4,526 	"/>
	<g>
		<path class="st4" d="M674.2,355.8l-65.6-2.7l-36.3-20.2l-26.3,33.4l-75.7,40.1l-57.7,54.9L389,537.7l8.9,39l-15.7-23.9
			l-11.1-101.4l-81-29.5l-30.9,105.6l40.8,79.6l61.9,42.6l-106.7,17.3h141.6l-0.1-0.1l138.1-0.1l-0.8-0.3h127.8l-67-30.7l35.6-63
			l-4.5-48.3l63.5,25.2l2.9-36.1L655,473.4l17-21.7l25.5-6.2v15.9h23.5l23.9-60.8L674.2,355.8z M357.1,462.4l10.4,95.7l20.1,30.7
			l-1.8-0.7l-57.5-22.2l96.3,79.4l17.6,5.5l1.4,0.4l2.4,0.7l-5.9,0l-48.5,0l-79.8-54.9L275.4,526l24.7-84.4L357.1,462.4z
			 M712.6,441.2v-14v-1l-8.4,2l-39.6,9.7l-31.3,35.1l0.1,0.2L610,499.7l-1.4,1.6l-0.1-0.3L597,568.5l-59.1,24.2l70.2-11.3
			l-27.7,48.9l-87.8-35l-3.1-1.2l1.8,1.9l0.3,0.3l52.1,55.2h-53.9l-22.9-7.9l-0.6-0.5c-0.1,0.1-0.3,0.1-0.4,0.1l-31.7-10.9
			l-12.4-18.9L404.7,539l-0.2-0.7l21.2-68.8l53.4-50.8l76.7-40.6l20.3-25.8l28.2,15.7l65.2,2.7l42.2,26.7l-20-0.9l0,0l0.1,0
			l30.4,20.3L712.6,441.2z"/>
		<polygon class="st4" points="625.7,378.3 625.8,378.4 609.4,376.3 630.5,383.3 630.9,383.4 630.7,383.5 630.5,383.5 630.7,383.5 
			640.5,393.8 665.4,393.1 659.3,383 		"/>
		<polygon class="st4" points="560.8,386.1 581.8,373.6 595.3,374 578.7,365.1 		"/>
		<polygon class="st4" points="450.9,485.6 428.8,553.2 458.7,492 512,440.8 586.7,401 501.4,434.4 		"/>
	</g>
</g>
</svg>
