<?xml version="1.0" encoding="utf-8"?>
<svg aria-hidden="true" focusable="false" data-prefix="fas" data-icon="project-diagram" class="svg-inline--fa fa-project-diagram fa-w-20" role="img" viewBox="0 0 640 512" xmlns="http://www.w3.org/2000/svg">
  <path fill="currentColor" d="M 374 310 L 266 310 C 251.091 310 239 322.091 239 337 L 239 445 C 239 459.909 251.091 472 266 472 L 374 472 C 388.909 472 401 459.909 401 445 L 401 337 C 401 322.091 388.909 310 374 310 Z M 212 67 C 212 52.091 199.909 40 185 40 L 77 40 C 62.091 40 50 52.091 50 67 L 50 175 C 50 189.909 62.091 202 77 202 L 157.764 202 L 219.493 310.034 C 228.858 293.952 246.088 283 266 283 L 266.236 283 L 212 188.087 L 212 148 L 401 148 L 401 94 L 212 94 L 212 67 Z M 563 40 L 455 40 C 440.091 40 428 52.091 428 67 L 428 175 C 428 189.909 440.091 202 455 202 L 563 202 C 577.909 202 590 189.909 590 175 L 590 67 C 590 52.091 577.909 40 563 40 Z" style="stroke: rgb(70, 203, 174); fill: none; stroke-width: 16px;"/>
</svg>